<svg shape-rendering="crispEdges" xmlns="http://www.w3.org/2000/svg" width="240" height="180" viewBox="0 0 240 180" role="img" aria-hidden="true">
<rect x="75" y="75" width="30" height="30" fill="#e5e7eb" stroke="#374151" stroke-width="2" vector-effect="non-scaling-stroke" shape-rendering="crispEdges"/>
<rect x="75" y="105" width="30" height="30" fill="#e5e7eb" stroke="#374151" stroke-width="2" vector-effect="non-scaling-stroke" shape-rendering="crispEdges"/>
<rect x="75" y="135" width="30" height="30" fill="#e5e7eb" stroke="#374151" stroke-width="2" vector-effect="non-scaling-stroke" shape-rendering="crispEdges"/>
<rect x="105" y="45" width="30" height="30" fill="#e5e7eb" stroke="#374151" stroke-width="2" vector-effect="non-scaling-stroke" shape-rendering="crispEdges"/>
<rect x="105" y="75" width="30" height="30" fill="#e5e7eb" stroke="#374151" stroke-width="2" vector-effect="non-scaling-stroke" shape-rendering="crispEdges"/>
<rect x="105" y="105" width="30" height="30" fill="#e5e7eb" stroke="#374151" stroke-width="2" vector-effect="non-scaling-stroke" shape-rendering="crispEdges"/>
<rect x="105" y="135" width="30" height="30" fill="#e5e7eb" stroke="#374151" stroke-width="2" vector-effect="non-scaling-stroke" shape-rendering="crispEdges"/>
<rect x="135" y="15" width="30" height="30" fill="#e5e7eb" stroke="#374151" stroke-width="2" vector-effect="non-scaling-stroke" shape-rendering="crispEdges"/>
<rect x="135" y="45" width="30" height="30" fill="#e5e7eb" stroke="#374151" stroke-width="2" vector-effect="non-scaling-stroke" shape-rendering="crispEdges"/>
<rect x="135" y="105" width="30" height="30" fill="#e5e7eb" stroke="#374151" stroke-width="2" vector-effect="non-scaling-stroke" shape-rendering="crispEdges"/>
<rect x="135" y="135" width="30" height="30" fill="#e5e7eb" stroke="#374151" stroke-width="2" vector-effect="non-scaling-stroke" shape-rendering="crispEdges"/>
<path data-fa-layer="outer-outline" d="M75 75L75 105M75 75L105 75M75 105L75 135M75 135L75 165M75 165L105 165M105 45L105 75M105 45L135 45M135 75L135 105M105 165L135 165M135 15L135 45M165 15L165 45M135 15L165 15M165 45L165 75M135 75L165 75M165 105L165 135M135 105L165 105M165 135L165 165M135 165L165 165" fill="none" stroke="#111827" stroke-width="3" vector-effect="non-scaling-stroke" shape-rendering="crispEdges" stroke-linecap="square" stroke-linejoin="miter"/>
</svg>
