<svg shape-rendering="crispEdges" xmlns="http://www.w3.org/2000/svg" width="240" height="180" viewBox="0 0 240 180" role="img" aria-hidden="true">
<rect x="60" y="45" width="30" height="30" fill="#e5e7eb" stroke="#374151" stroke-width="2" vector-effect="non-scaling-stroke" shape-rendering="crispEdges"/>
<rect x="90" y="45" width="30" height="30" fill="#e5e7eb" stroke="#374151" stroke-width="2" vector-effect="non-scaling-stroke" shape-rendering="crispEdges"/>
<rect x="90" y="75" width="30" height="30" fill="#e5e7eb" stroke="#374151" stroke-width="2" vector-effect="non-scaling-stroke" shape-rendering="crispEdges"/>
<rect x="90" y="105" width="30" height="30" fill="#e5e7eb" stroke="#374151" stroke-width="2" vector-effect="non-scaling-stroke" shape-rendering="crispEdges"/>
<rect x="120" y="75" width="30" height="30" fill="#e5e7eb" stroke="#374151" stroke-width="2" vector-effect="non-scaling-stroke" shape-rendering="crispEdges"/>
<rect x="120" y="105" width="30" height="30" fill="#e5e7eb" stroke="#374151" stroke-width="2" vector-effect="non-scaling-stroke" shape-rendering="crispEdges"/>
<rect x="150" y="45" width="30" height="30" fill="#e5e7eb" stroke="#374151" stroke-width="2" vector-effect="non-scaling-stroke" shape-rendering="crispEdges"/>
<rect x="150" y="75" width="30" height="30" fill="#e5e7eb" stroke="#374151" stroke-width="2" vector-effect="non-scaling-stroke" shape-rendering="crispEdges"/>
<path data-fa-layer="outer-outline" d="M60 45L60 75M60 45L90 45M60 75L90 75M120 45L120 75M90 45L120 45M90 75L90 105M90 105L90 135M90 135L120 135M120 75L150 75M150 105L150 135M120 135L150 135M150 45L150 75M180 45L180 75M150 45L180 45M180 75L180 105M150 105L180 105" fill="none" stroke="#111827" stroke-width="3" vector-effect="non-scaling-stroke" shape-rendering="crispEdges" stroke-linecap="square" stroke-linejoin="miter"/>
</svg>
