<svg xmlns="http://www.w3.org/2000/svg" width="520" height="260" viewBox="0 0 520 260" role="img" aria-hidden="true" data-fa-role="pieces" data-piece-count="3" data-mirrored="false">
  <g data-piece-index="1" data-cells="0,0;1,0;2,0;2,1;2,2;2,3;2,4;3,0;3,1;3,4;4,1;4,2" transform="translate(136 87.5)"><rect x="0" y="17" width="17" height="17" fill="#f8fafc"/><rect x="0" y="34" width="17" height="17" fill="#f8fafc"/><rect x="0" y="51" width="17" height="17" fill="#f8fafc"/><rect x="0" y="68" width="17" height="17" fill="#f8fafc"/><rect x="17" y="0" width="17" height="17" fill="#f8fafc"/><rect x="17" y="17" width="17" height="17" fill="#f8fafc"/><rect x="17" y="34" width="17" height="17" fill="#f8fafc"/><rect x="34" y="0" width="17" height="17" fill="#f8fafc"/><rect x="34" y="34" width="17" height="17" fill="#f8fafc"/><rect x="51" y="34" width="17" height="17" fill="#f8fafc"/><rect x="68" y="17" width="17" height="17" fill="#f8fafc"/><rect x="68" y="34" width="17" height="17" fill="#f8fafc"/><path d="M0 17L0 34M0 17L17 17M0 34L0 51M0 51L0 68M17 51L17 68M0 68L0 85M17 68L17 85M0 85L17 85M17 0L17 17M17 0L34 0M34 17L34 34M17 51L34 51M51 0L51 17M34 0L51 0M34 17L51 17M34 34L51 34M34 51L51 51M51 34L68 34M51 51L68 51M68 17L68 34M85 17L85 34M68 17L85 17M85 34L85 51M68 51L85 51" fill="none" stroke="#0f172a" stroke-width="3" stroke-linecap="round" stroke-linejoin="round"/></g>
  <g data-piece-index="2" data-cells="0,0;0,1;1,1;1,2" transform="translate(243 113)"><rect x="0" y="17" width="17" height="17" fill="#f8fafc"/><rect x="17" y="0" width="17" height="17" fill="#f8fafc"/><rect x="17" y="17" width="17" height="17" fill="#f8fafc"/><rect x="34" y="0" width="17" height="17" fill="#f8fafc"/><path d="M0 17L0 34M0 17L17 17M0 34L17 34M17 0L17 17M17 0L34 0M34 17L34 34M17 34L34 34M51 0L51 17M34 0L51 0M34 17L51 17" fill="none" stroke="#0f172a" stroke-width="3" stroke-linecap="round" stroke-linejoin="round"/></g>
  <g data-piece-index="3" data-cells="0,0;1,0;2,0;3,0" transform="translate(316 121.5)"><rect x="0" y="0" width="17" height="17" fill="#f8fafc"/><rect x="17" y="0" width="17" height="17" fill="#f8fafc"/><rect x="34" y="0" width="17" height="17" fill="#f8fafc"/><rect x="51" y="0" width="17" height="17" fill="#f8fafc"/><path d="M0 0L0 17M0 0L17 0M0 17L17 17M17 0L34 0M17 17L34 17M34 0L51 0M34 17L51 17M68 0L68 17M51 0L68 0M51 17L68 17" fill="none" stroke="#0f172a" stroke-width="3" stroke-linecap="round" stroke-linejoin="round"/></g>
</svg>
